Coordinates
version=1
nRows=31
nColumns=38
inDegrees=no

Units are S.I. units (second, meters, Newtons, ...)
If the header above contains a line with 'inDegrees', this indicates whether rotational values are in degrees (yes) or radians (no).

endheader
time	pelvis_tilt	pelvis_list	pelvis_rotation	pelvis_tx	pelvis_ty	pelvis_tz	hip_flexion_r	hip_adduction_r	hip_rotation_r	knee_angle_r	ankle_angle_r	subtalar_angle_r	mtp_angle_r	hip_flexion_l	hip_adduction_l	hip_rotation_l	knee_angle_l	ankle_angle_l	subtalar_angle_l	mtp_angle_l	lumbar_extension	lumbar_bending	lumbar_rotation	arm_flex_r	arm_add_r	arm_rot_r	elbow_flex_r	pro_sup_r	wrist_flex_r	wrist_dev_r	arm_flex_l	arm_add_l	arm_rot_l	elbow_flex_l	pro_sup_l	wrist_flex_l	wrist_dev_l
0	0.304023	1.42287	-1.78502	1.10102	1.47882	0.945269	0.329824	-0.232194	-0.303656	0.800712	0.112507	0	0	-0.2505	0.0722149	-0.0941513	0.0431694	0.170419	0	0	-0.285519	-0.0727373	-0.213479	-0.258256	-0.205603	0.0679649	0.741138	0.470063	0	0	0.0315787	-0.488663	0.195034	0.733625	1.31607	0	0
0.01	0.314702	1.42523	-1.79448	1.10155	1.47094	0.94425	0.337537	-0.232429	-0.317702	0.754344	0.1129	0	0	-0.26668	0.0739451	-0.0827747	0.0244742	0.168624	0	0	-0.283708	-0.0721769	-0.212743	-0.257883	-0.20481	0.0624484	0.746426	0.472311	0	0	0.0481563	-0.492776	0.207142	0.730982	1.31028	0	0
0.02	0.319411	1.42735	-1.7985	1.10186	1.46285	0.943141	0.343167	-0.230613	-0.332622	0.706368	0.113679	0	0	-0.282963	0.074399	-0.0730627	0.00689881	0.166912	0	0	-0.283011	-0.0705072	-0.214344	-0.255236	-0.20523	0.0615338	0.751451	0.473756	0	0	0.0590765	-0.496356	0.209713	0.731823	1.30436	0	0
0.03	0.322503	1.43005	-1.79923	1.10166	1.45485	0.941879	0.348395	-0.22623	-0.344154	0.658046	0.1112	0	0	-0.293348	0.0727622	-0.0733061	0.000191388	0.171607	0	0	-0.282356	-0.0693776	-0.2186	-0.252037	-0.204392	0.0628595	0.755881	0.474662	0	0	0.0682732	-0.501183	0.208597	0.734626	1.30318	0	0
0.04	0.338988	1.43253	-1.81682	1.10207	1.44701	0.940455	0.353806	-0.224953	-0.363347	0.608111	0.11674	0	0	-0.301281	0.0746401	-0.0694364	0	0.174662	0	0	-0.282369	-0.0681421	-0.219834	-0.246421	-0.206221	0.0646352	0.760001	0.475926	0	0	0.0757065	-0.503569	0.206906	0.738194	1.30217	0	0
0.05	0.350205	1.43537	-1.82834	1.10182	1.43911	0.938896	0.358453	-0.219965	-0.376964	0.557242	0.118596	0	0	-0.308236	0.074728	-0.0703661	0	0.180174	0	0	-0.281733	-0.0674911	-0.220237	-0.242104	-0.206141	0.0655648	0.763657	0.476957	0	0	0.0858614	-0.506472	0.208124	0.739849	1.30156	0	0
0.06	0.360587	1.43884	-1.84065	1.10134	1.43122	0.937182	0.363619	-0.212673	-0.386531	0.506204	0.120421	0	0	-0.31428	0.0749162	-0.0726693	0	0.185813	0	0	-0.280715	-0.0667616	-0.218832	-0.237368	-0.206252	0.0667333	0.767264	0.477954	0	0	0.0962625	-0.508591	0.209945	0.740844	1.30138	0	0
0.07	0.371562	1.44305	-1.85401	1.10051	1.42304	0.935317	0.368765	-0.203747	-0.392064	0.454722	0.122636	0	0	-0.319213	0.074967	-0.0758957	0	0.191761	0	0	-0.278496	-0.0661982	-0.21567	-0.233449	-0.205939	0.0667651	0.770716	0.479202	0	0	0.108274	-0.509797	0.21396	0.739629	1.30135	0	0
0.08	0.386573	1.44835	-1.87204	1.0998	1.41503	0.933331	0.374165	-0.193882	-0.394082	0.403256	0.125328	0	0	-0.322737	0.0750712	-0.0787923	0	0.198238	0	0	-0.275695	-0.0654592	-0.212997	-0.228418	-0.205831	0.0672802	0.773693	0.48069	0	0	0.117371	-0.510721	0.215093	0.740859	1.30115	0	0
0.09	0.39565	1.45338	-1.88437	1.09903	1.4069	0.93136	0.377008	-0.182105	-0.390356	0.350918	0.128115	0	0	-0.326694	0.0743491	-0.0816273	0	0.205183	0	0	-0.273933	-0.0635639	-0.211152	-0.222551	-0.206301	0.0690315	0.776884	0.482253	0	0	0.123716	-0.511427	0.213555	0.744536	1.30139	0	0
0.1	0.407272	1.45872	-1.89905	1.09842	1.39882	0.929423	0.377885	-0.169694	-0.381365	0.297942	0.129178	0	0	-0.330129	0.0734281	-0.0833816	0	0.211722	0	0	-0.271746	-0.0615551	-0.209281	-0.216793	-0.206723	0.0710744	0.779613	0.484072	0	0	0.129613	-0.51153	0.212448	0.747781	1.30291	0	0
0.11	0.428018	1.46432	-1.92079	1.09739	1.38969	0.927423	0.377442	-0.158068	-0.368394	0.24755	0.12632	0	0	-0.339569	0.0695378	-0.0924936	0	0.220992	0	0	-0.26754	-0.0606725	-0.207126	-0.213731	-0.206536	0.071701	0.7821	0.485765	0	0	0.13641	-0.510653	0.2135	0.749502	1.30592	0	0
0.12	0.433896	1.46915	-1.93095	1.09695	1.38156	0.92586	0.362119	-0.145386	-0.281968	0.182096	0.0934017	0	0	-0.338757	0.0687576	-0.0945267	0	0.227501	0	0	-0.266612	-0.0568386	-0.202401	-0.208473	-0.2084	0.0718977	0.784794	0.488115	0	0	0.14494	-0.506094	0.212719	0.747753	1.31051	0	0
0.13	0.427532	1.47014	-1.92514	1.09562	1.3719	0.9242	0.366118	-0.134839	-0.342414	0.15858	0.110115	0	0	-0.343949	0.0646839	-0.0983873	0.00610329	0.236716	0	0	-0.26653	-0.0552212	-0.200962	-0.207739	-0.206959	0.0712111	0.787186	0.489347	0	0	0.147948	-0.506421	0.213609	0.750947	1.31214	0	0
0.14	0.431174	1.47241	-1.92869	1.09495	1.36254	0.92262	0.364625	-0.129345	-0.344945	0.138993	0.109108	0	0	-0.343835	0.0615753	-0.105016	0.0238747	0.249467	0	0	-0.265752	-0.052364	-0.200433	-0.206089	-0.207156	0.0705067	0.789467	0.490428	0	0	0.151011	-0.504459	0.214906	0.753218	1.3136	0	0
0.15	0.420086	1.47373	-1.91653	1.09434	1.35298	0.921255	0.360862	-0.123663	-0.34574	0.126668	0.105267	0	0	-0.343734	0.0565394	-0.11448	0.0456776	0.2651	0	0	-0.266278	-0.0478643	-0.200663	-0.204678	-0.207766	0.0700326	0.791602	0.49113	0	0	0.15308	-0.50186	0.216481	0.75557	1.31605	0	0
0.16	0.397119	1.47456	-1.89147	1.09383	1.34317	0.920033	0.356962	-0.118644	-0.34776	0.125141	0.101482	0	0	-0.34402	0.0498897	-0.124459	0.0690273	0.281043	0	0	-0.267362	-0.0417665	-0.201587	-0.20415	-0.208906	0.0693502	0.794242	0.490797	0	0	0.153993	-0.498316	0.217457	0.757647	1.31875	0	0
0.17	0.36641	1.4751	-1.85826	1.09339	1.33307	0.918933	0.353577	-0.114363	-0.34934	0.134222	0.0970082	0	0	-0.34479	0.0421841	-0.134207	0.0930204	0.296111	0	0	-0.268314	-0.0346164	-0.202791	-0.204655	-0.210378	0.0679164	0.797268	0.489639	0	0	0.153366	-0.493897	0.217679	0.759644	1.32109	0	0
0.18	0.335776	1.47539	-1.82496	1.09297	1.32267	0.917895	0.350656	-0.110985	-0.349772	0.151342	0.0931544	0	0	-0.346065	0.0342063	-0.143169	0.117066	0.309635	0	0	-0.26874	-0.0272638	-0.204168	-0.206507	-0.21236	0.0665046	0.801327	0.48841	0	0	0.151055	-0.48913	0.21772	0.761797	1.32277	0	0
0.19	0.310084	1.47539	-1.79614	1.09251	1.31192	0.916908	0.347928	-0.108715	-0.351626	0.173403	0.0942739	0	0	-0.347837	0.0261956	-0.150917	0.141022	0.321136	0	0	-0.26851	-0.0203227	-0.206266	-0.209665	-0.214303	0.0649264	0.805985	0.48762	0	0	0.146698	-0.484494	0.217667	0.76459	1.32383	0	0
0.2	0.288369	1.47535	-1.77162	1.09196	1.30096	0.915992	0.345763	-0.106923	-0.354015	0.196502	0.0979405	0	0	-0.349484	0.0182232	-0.158464	0.165384	0.330555	0	0	-0.267724	-0.0137714	-0.208305	-0.213524	-0.21605	0.0627393	0.8108	0.487023	0	0	0.140646	-0.479645	0.21771	0.768011	1.32538	0	0
0.21	0.26586	1.47558	-1.74607	1.09132	1.28992	0.91523	0.343569	-0.104683	-0.355682	0.214923	0.0956023	0	0	-0.349846	0.00937517	-0.166047	0.191522	0.338163	0	0	-0.266508	-0.0070192	-0.210942	-0.217277	-0.217395	0.0601915	0.814866	0.486557	0	0	0.133308	-0.474694	0.217068	0.771298	1.3271	0	0
0.22	0.236162	1.4764	-1.71355	1.09046	1.27886	0.914668	0.341007	-0.100852	-0.356292	0.226427	0.0802816	0	0	-0.348097	-0.00118612	-0.174556	0.220618	0.344382	0	0	-0.26473	0.000371329	-0.213733	-0.220423	-0.218348	0.0574872	0.817442	0.486179	0	0	0.124897	-0.469537	0.215134	0.773841	1.32873	0	0
0.23	0.195029	1.47748	-1.67012	1.0894	1.26778	0.914319	0.337483	-0.0954158	-0.356914	0.233543	0.0556515	0	0	-0.344378	-0.0135977	-0.183532	0.25302	0.349023	0	0	-0.262796	0.00869394	-0.216087	-0.22297	-0.219115	0.0550092	0.818761	0.486935	0	0	0.11573	-0.464083	0.212164	0.775693	1.33051	0	0
0.24	0.149531	1.47883	-1.62308	1.08817	1.25662	0.914098	0.333871	-0.0897799	-0.35861	0.241193	0.0324328	0	0	-0.338508	-0.0270853	-0.193148	0.288876	0.3519	0	0	-0.26024	0.017115	-0.217812	-0.225328	-0.21981	0.0528902	0.819014	0.488693	0	0	0.105931	-0.458103	0.208391	0.776582	1.33279	0	0
0.25	0.101764	1.48021	-1.57461	1.0867	1.24525	0.913984	0.331113	-0.0846724	-0.361696	0.253081	0.0158545	0	0	-0.330761	-0.0416063	-0.203582	0.328497	0.352701	0	0	-0.256913	0.0252304	-0.218921	-0.227743	-0.220429	0.0511178	0.818061	0.490569	0	0	0.0952312	-0.451757	0.204066	0.776392	1.33584	0	0
0.26	0.0526796	1.48044	-1.5248	1.0852	1.23367	0.91412	0.328308	-0.0806386	-0.365806	0.269991	0.00510222	0	0	-0.322012	-0.0569873	-0.212848	0.371994	0.350006	0	0	-0.254068	0.0333649	-0.220306	-0.23003	-0.221262	0.0498162	0.816399	0.492109	0	0	0.0837115	-0.445178	0.199703	0.775292	1.33943	0	0
0.27	0.00284281	1.47949	-1.4747	1.08369	1.22193	0.91455	0.325003	-0.0766934	-0.367421	0.290367	-0.000559041	0	0	-0.311881	-0.072896	-0.219653	0.419497	0.341251	0	0	-0.251924	0.0416637	-0.221492	-0.232219	-0.222664	0.0496401	0.814766	0.493518	0	0	0.071613	-0.438172	0.19533	0.773239	1.34304	0	0
0.28	-0.0542079	1.47657	-1.41856	1.08207	1.21043	0.915391	0.319714	-0.070856	-0.366401	0.310721	-0.00226467	0	0	-0.299614	-0.0901087	-0.224723	0.472123	0.325522	0	0	-0.252356	0.0509837	-0.221445	-0.233349	-0.224843	0.0507919	0.813649	0.494638	0	0	0.0605104	-0.430796	0.191675	0.770421	1.34632	0	0
0.29	-0.12133	1.47757	-1.35368	1.08004	1.19855	0.915889	0.31736	-0.0631212	-0.364061	0.328081	0.000614466	0	0	-0.278854	-0.108913	-0.229497	0.53075	0.302929	0	0	-0.246492	0.0595034	-0.220431	-0.235758	-0.226665	0.0524689	0.810882	0.495043	0	0	0.047411	-0.423305	0.188391	0.766025	1.34941	0	0
0.3	-0.198496	1.47868	-1.28126	1.07778	1.18723	0.916428	0.314601	-0.0532527	-0.360823	0.340767	0.00387949	0	0	-0.25238	-0.128291	-0.232422	0.595247	0.271055	0	0	-0.241279	0.0684009	-0.217115	-0.236752	-0.229274	0.0555581	0.808944	0.494389	0	0	0.0356038	-0.41563	0.185916	0.761088	1.35194	0	0
